# xmcd CD database file
# Copyright (C) 1995-1998 Ti Kan
#
# Track frame offsets:
#	150
#	17069
#	31506
#	50358
#	69913
#	89167
#	107685
#	124664
#	139058
#	155184
#	172969
#	192362
#
# Disc length: 2854 seconds
#
# Revision: 1
# Processed by: cddbd v1.4PL0 Copyright (c) Steve Scherf et al.
# Submitted via: CDex 1.30Release
#
DISCID=9c0b240c
DTITLE=Medicine Dream - Mawiomi
DYEAR=2000
DGENRE=Native American
TTITLE0=P'jilasi
TTITLE1=Lightning Flashes the Sky
TTITLE2=Invitation to Breathe
TTITLE3=If We Were Wolves
TTITLE4=Msit Nokamaq
TTITLE5=If You Dream of Eagles
TTITLE6=True Friends
TTITLE7=We Belong
TTITLE8=The Homecoming
TTITLE9=Medicine Dream
TTITLE10=The Blessing
TTITLE11=Honor Song
EXTD=YEAR: 2000 ID3G:  64
EXTT0=
EXTT1=
EXTT2=
EXTT3=
EXTT4=
EXTT5=
EXTT6=
EXTT7=
EXTT8=
EXTT9=
EXTT10=
EXTT11=
PLAYORDER=
